<mxfile host="app.diagrams.net" modified="2024-05-08T09:33:03.565Z" agent="Mozilla/5.0 (Windows NT 10.0; Win64; x64) AppleWebKit/537.36 (KHTML, like Gecko) Chrome/124.0.0.0 Safari/537.36" etag="tpFaF2dvNGyP_0PutBtJ" version="24.3.1" type="github">
  <diagram name="第 1 页" id="qVZ5cJXcYh1BwgNo5W2R">
    <mxGraphModel dx="1687" dy="2047" grid="1" gridSize="10" guides="1" tooltips="1" connect="1" arrows="1" fold="1" page="1" pageScale="1" pageWidth="827" pageHeight="1169" math="0" shadow="0">
      <root>
        <mxCell id="0" />
        <mxCell id="1" parent="0" />
        <mxCell id="pPcvffvmUVzLGgQBAyNQ-1" value="FH系统" style="whiteSpace=wrap;html=1;aspect=fixed;" parent="1" vertex="1">
          <mxGeometry x="400" y="1350" width="130" height="130" as="geometry" />
        </mxCell>
        <mxCell id="pPcvffvmUVzLGgQBAyNQ-2" value="FH数据库" style="shape=cylinder3;whiteSpace=wrap;html=1;boundedLbl=1;backgroundOutline=1;size=15;" parent="1" vertex="1">
          <mxGeometry x="435" y="1608" width="60" height="80" as="geometry" />
        </mxCell>
        <mxCell id="iYMbOG68nSV6l12BrZ7V-28" style="edgeStyle=orthogonalEdgeStyle;rounded=0;orthogonalLoop=1;jettySize=auto;html=1;exitX=0;exitY=0.25;exitDx=0;exitDy=0;entryX=1;entryY=0.5;entryDx=0;entryDy=0;" parent="1" source="pPcvffvmUVzLGgQBAyNQ-3" target="iYMbOG68nSV6l12BrZ7V-27" edge="1">
          <mxGeometry relative="1" as="geometry" />
        </mxCell>
        <mxCell id="pPcvffvmUVzLGgQBAyNQ-3" value="F3系统" style="whiteSpace=wrap;html=1;aspect=fixed;" parent="1" vertex="1">
          <mxGeometry x="1230" y="1383" width="160" height="160" as="geometry" />
        </mxCell>
        <mxCell id="pPcvffvmUVzLGgQBAyNQ-4" value="" style="endArrow=classic;html=1;rounded=0;exitX=0.5;exitY=1;exitDx=0;exitDy=0;entryX=0.5;entryY=0;entryDx=0;entryDy=0;entryPerimeter=0;" parent="1" source="pPcvffvmUVzLGgQBAyNQ-1" target="pPcvffvmUVzLGgQBAyNQ-2" edge="1">
          <mxGeometry width="50" height="50" relative="1" as="geometry">
            <mxPoint x="920" y="1530" as="sourcePoint" />
            <mxPoint x="970" y="1480" as="targetPoint" />
          </mxGeometry>
        </mxCell>
        <mxCell id="pPcvffvmUVzLGgQBAyNQ-5" value="FH定时job" style="shape=process;whiteSpace=wrap;html=1;backgroundOutline=1;" parent="1" vertex="1">
          <mxGeometry x="550" y="1249" width="140" height="60" as="geometry" />
        </mxCell>
        <mxCell id="pPcvffvmUVzLGgQBAyNQ-6" value="" style="endArrow=classic;html=1;rounded=0;entryX=0.5;entryY=0;entryDx=0;entryDy=0;exitX=1;exitY=0.5;exitDx=0;exitDy=0;" parent="1" source="pPcvffvmUVzLGgQBAyNQ-5" target="pPcvffvmUVzLGgQBAyNQ-3" edge="1">
          <mxGeometry width="50" height="50" relative="1" as="geometry">
            <mxPoint x="920" y="1300" as="sourcePoint" />
            <mxPoint x="1130" y="1300" as="targetPoint" />
            <Array as="points">
              <mxPoint x="1310" y="1280" />
            </Array>
          </mxGeometry>
        </mxCell>
        <mxCell id="pPcvffvmUVzLGgQBAyNQ-7" value="1、API查询全量商品stockqty数据、按照仓库维度" style="text;html=1;align=center;verticalAlign=middle;whiteSpace=wrap;rounded=0;" parent="1" vertex="1">
          <mxGeometry x="820" y="1240" width="300" height="30" as="geometry" />
        </mxCell>
        <mxCell id="pPcvffvmUVzLGgQBAyNQ-8" value="" style="endArrow=classic;html=1;rounded=0;exitX=0.45;exitY=1;exitDx=0;exitDy=0;exitPerimeter=0;entryX=1;entryY=0.5;entryDx=0;entryDy=0;" parent="1" source="pPcvffvmUVzLGgQBAyNQ-5" target="pPcvffvmUVzLGgQBAyNQ-1" edge="1">
          <mxGeometry width="50" height="50" relative="1" as="geometry">
            <mxPoint x="970" y="1430" as="sourcePoint" />
            <mxPoint x="1020" y="1380" as="targetPoint" />
          </mxGeometry>
        </mxCell>
        <mxCell id="pPcvffvmUVzLGgQBAyNQ-9" value="客户端" style="rounded=1;whiteSpace=wrap;html=1;" parent="1" vertex="1">
          <mxGeometry x="180" y="1365" width="120" height="60" as="geometry" />
        </mxCell>
        <mxCell id="pPcvffvmUVzLGgQBAyNQ-10" value="" style="endArrow=classic;html=1;rounded=0;exitX=1;exitY=0.5;exitDx=0;exitDy=0;entryX=-0.015;entryY=0.338;entryDx=0;entryDy=0;entryPerimeter=0;" parent="1" source="pPcvffvmUVzLGgQBAyNQ-9" target="pPcvffvmUVzLGgQBAyNQ-1" edge="1">
          <mxGeometry width="50" height="50" relative="1" as="geometry">
            <mxPoint x="710" y="1540" as="sourcePoint" />
            <mxPoint x="760" y="1490" as="targetPoint" />
          </mxGeometry>
        </mxCell>
        <mxCell id="iYMbOG68nSV6l12BrZ7V-36" style="edgeStyle=orthogonalEdgeStyle;rounded=0;orthogonalLoop=1;jettySize=auto;html=1;entryX=0.5;entryY=0;entryDx=0;entryDy=0;" parent="1" source="pPcvffvmUVzLGgQBAyNQ-19" target="QRlhJD_Ntzw3cVginwKR-15" edge="1">
          <mxGeometry relative="1" as="geometry" />
        </mxCell>
        <mxCell id="pPcvffvmUVzLGgQBAyNQ-19" value="3、完全覆盖F3库存重新计算可用库存字段，并记录F3表（ModifyTime)字段" style="rounded=0;whiteSpace=wrap;html=1;" parent="1" vertex="1">
          <mxGeometry x="620" y="1403" width="120" height="60" as="geometry" />
        </mxCell>
        <mxCell id="pPcvffvmUVzLGgQBAyNQ-23" value="&lt;span style=&quot;color: rgb(0, 0, 0); font-family: Helvetica; font-size: 12px; font-style: normal; font-variant-ligatures: normal; font-variant-caps: normal; font-weight: 400; letter-spacing: normal; orphans: 2; text-align: center; text-indent: 0px; text-transform: none; widows: 2; word-spacing: 0px; -webkit-text-stroke-width: 0px; white-space: normal; background-color: rgb(251, 251, 251); text-decoration-thickness: initial; text-decoration-style: initial; text-decoration-color: initial; display: inline !important; float: none;&quot;&gt;比较ModifyTime确定是否更新数据&lt;/span&gt;" style="text;whiteSpace=wrap;html=1;" parent="1" vertex="1">
          <mxGeometry x="587" y="1770" width="220" height="40" as="geometry" />
        </mxCell>
        <mxCell id="pPcvffvmUVzLGgQBAyNQ-24" value="canal" style="shape=process;whiteSpace=wrap;html=1;backgroundOutline=1;" parent="1" vertex="1">
          <mxGeometry x="620" y="1810" width="120" height="60" as="geometry" />
        </mxCell>
        <mxCell id="pPcvffvmUVzLGgQBAyNQ-25" value="" style="endArrow=classic;html=1;rounded=0;entryX=1;entryY=0.5;entryDx=0;entryDy=0;exitX=0;exitY=0.5;exitDx=0;exitDy=0;" parent="1" target="pPcvffvmUVzLGgQBAyNQ-24" edge="1">
          <mxGeometry width="50" height="50" relative="1" as="geometry">
            <mxPoint x="940" y="1840" as="sourcePoint" />
            <mxPoint x="900" y="1850" as="targetPoint" />
          </mxGeometry>
        </mxCell>
        <mxCell id="pPcvffvmUVzLGgQBAyNQ-26" value="" style="endArrow=classic;html=1;rounded=0;exitX=0;exitY=0.75;exitDx=0;exitDy=0;entryX=0.378;entryY=0.989;entryDx=0;entryDy=0;entryPerimeter=0;" parent="1" source="pPcvffvmUVzLGgQBAyNQ-24" edge="1" target="pPcvffvmUVzLGgQBAyNQ-2">
          <mxGeometry width="50" height="50" relative="1" as="geometry">
            <mxPoint x="420" y="1730" as="sourcePoint" />
            <mxPoint x="470" y="1680" as="targetPoint" />
            <Array as="points">
              <mxPoint x="458" y="1855" />
            </Array>
          </mxGeometry>
        </mxCell>
        <mxCell id="pPcvffvmUVzLGgQBAyNQ-27" value="ZT数据库" style="shape=cylinder3;whiteSpace=wrap;html=1;boundedLbl=1;backgroundOutline=1;size=15;" parent="1" vertex="1">
          <mxGeometry x="944" y="1800" width="60" height="80" as="geometry" />
        </mxCell>
        <mxCell id="QRlhJD_Ntzw3cVginwKR-12" value="不一致" style="text;html=1;align=center;verticalAlign=middle;whiteSpace=wrap;rounded=0;" parent="1" vertex="1">
          <mxGeometry x="820" y="1385" width="60" height="30" as="geometry" />
        </mxCell>
        <mxCell id="QRlhJD_Ntzw3cVginwKR-13" value="是" style="text;html=1;align=center;verticalAlign=middle;whiteSpace=wrap;rounded=0;" parent="1" vertex="1">
          <mxGeometry x="980" y="1385" width="60" height="30" as="geometry" />
        </mxCell>
        <mxCell id="QRlhJD_Ntzw3cVginwKR-14" value="&lt;div&gt;&lt;div&gt;1、FH系统开启定时任务，查询F3的仓库商品库存数据做对比。&lt;/div&gt;&lt;div&gt;2、如果F3的数据与FH的数据不一致，则更新为F3的库存，同时微信报警。&lt;/div&gt;&lt;div&gt;3、将FH中的F3库存字段和可用库存做增量更新，同时修改&lt;span style=&quot;text-align: center; background-color: initial;&quot;&gt;ModifyTime时间。&lt;/span&gt;&lt;/div&gt;&lt;div&gt;5、更新完成后，再次核对F3和FH的商品数据，将核对结果发送到消息微信群。&lt;br&gt;5、每4个小时小时检查一次，手工更新。&lt;/div&gt;&lt;/div&gt;&lt;div&gt;&lt;br&gt;&lt;/div&gt;" style="shape=note;whiteSpace=wrap;html=1;backgroundOutline=1;darkOpacity=0.05;align=left;" parent="1" vertex="1">
          <mxGeometry x="200" y="-110" width="900" height="240" as="geometry" />
        </mxCell>
        <mxCell id="QRlhJD_Ntzw3cVginwKR-15" value="生成库存变动历史（事件为库存校对）" style="rounded=0;whiteSpace=wrap;html=1;" parent="1" vertex="1">
          <mxGeometry x="620" y="1630" width="120" height="60" as="geometry" />
        </mxCell>
        <mxCell id="iYMbOG68nSV6l12BrZ7V-1" value="FH系统" style="whiteSpace=wrap;html=1;aspect=fixed;" parent="1" vertex="1">
          <mxGeometry x="330" y="390" width="130" height="130" as="geometry" />
        </mxCell>
        <mxCell id="iYMbOG68nSV6l12BrZ7V-3" value="F3系统" style="whiteSpace=wrap;html=1;aspect=fixed;" parent="1" vertex="1">
          <mxGeometry x="1160" y="425" width="160" height="160" as="geometry" />
        </mxCell>
        <mxCell id="iYMbOG68nSV6l12BrZ7V-5" value="FH定时job" style="shape=process;whiteSpace=wrap;html=1;backgroundOutline=1;" parent="1" vertex="1">
          <mxGeometry x="470" y="289" width="140" height="60" as="geometry" />
        </mxCell>
        <mxCell id="iYMbOG68nSV6l12BrZ7V-6" value="" style="endArrow=classic;html=1;rounded=0;entryX=0.5;entryY=0;entryDx=0;entryDy=0;exitX=1;exitY=0.5;exitDx=0;exitDy=0;" parent="1" source="iYMbOG68nSV6l12BrZ7V-5" target="iYMbOG68nSV6l12BrZ7V-3" edge="1">
          <mxGeometry width="50" height="50" relative="1" as="geometry">
            <mxPoint x="850" y="340" as="sourcePoint" />
            <mxPoint x="1060" y="340" as="targetPoint" />
            <Array as="points">
              <mxPoint x="1240" y="320" />
            </Array>
          </mxGeometry>
        </mxCell>
        <mxCell id="iYMbOG68nSV6l12BrZ7V-7" value="1、API查询全量商品stockqty数据、按照仓库维度" style="text;html=1;align=center;verticalAlign=middle;whiteSpace=wrap;rounded=0;" parent="1" vertex="1">
          <mxGeometry x="750" y="280" width="300" height="30" as="geometry" />
        </mxCell>
        <mxCell id="iYMbOG68nSV6l12BrZ7V-8" value="" style="endArrow=classic;html=1;rounded=0;exitX=0.45;exitY=1;exitDx=0;exitDy=0;exitPerimeter=0;entryX=1;entryY=0.5;entryDx=0;entryDy=0;" parent="1" source="iYMbOG68nSV6l12BrZ7V-5" target="iYMbOG68nSV6l12BrZ7V-1" edge="1">
          <mxGeometry width="50" height="50" relative="1" as="geometry">
            <mxPoint x="900" y="470" as="sourcePoint" />
            <mxPoint x="950" y="420" as="targetPoint" />
          </mxGeometry>
        </mxCell>
        <mxCell id="iYMbOG68nSV6l12BrZ7V-9" value="客户端" style="rounded=1;whiteSpace=wrap;html=1;" parent="1" vertex="1">
          <mxGeometry x="110" y="405" width="120" height="60" as="geometry" />
        </mxCell>
        <mxCell id="iYMbOG68nSV6l12BrZ7V-10" value="" style="endArrow=classic;html=1;rounded=0;exitX=1;exitY=0.5;exitDx=0;exitDy=0;entryX=-0.015;entryY=0.338;entryDx=0;entryDy=0;entryPerimeter=0;" parent="1" source="iYMbOG68nSV6l12BrZ7V-9" target="iYMbOG68nSV6l12BrZ7V-1" edge="1">
          <mxGeometry width="50" height="50" relative="1" as="geometry">
            <mxPoint x="640" y="580" as="sourcePoint" />
            <mxPoint x="690" y="530" as="targetPoint" />
          </mxGeometry>
        </mxCell>
        <mxCell id="iYMbOG68nSV6l12BrZ7V-11" value="" style="edgeStyle=orthogonalEdgeStyle;rounded=0;orthogonalLoop=1;jettySize=auto;html=1;" parent="1" source="iYMbOG68nSV6l12BrZ7V-12" target="iYMbOG68nSV6l12BrZ7V-22" edge="1">
          <mxGeometry relative="1" as="geometry" />
        </mxCell>
        <mxCell id="iYMbOG68nSV6l12BrZ7V-12" value="核对数据(F3-FH)" style="rhombus;whiteSpace=wrap;html=1;" parent="1" vertex="1">
          <mxGeometry x="854" y="425" width="80" height="80" as="geometry" />
        </mxCell>
        <mxCell id="iYMbOG68nSV6l12BrZ7V-13" value="" style="endArrow=classic;html=1;rounded=0;entryX=1;entryY=0.5;entryDx=0;entryDy=0;" parent="1" target="iYMbOG68nSV6l12BrZ7V-12" edge="1">
          <mxGeometry width="50" height="50" relative="1" as="geometry">
            <mxPoint x="1150" y="465" as="sourcePoint" />
            <mxPoint x="1150" y="490" as="targetPoint" />
          </mxGeometry>
        </mxCell>
        <mxCell id="iYMbOG68nSV6l12BrZ7V-22" value="发送微信通知" style="rounded=0;whiteSpace=wrap;html=1;" parent="1" vertex="1">
          <mxGeometry x="834" y="555" width="120" height="60" as="geometry" />
        </mxCell>
        <mxCell id="iYMbOG68nSV6l12BrZ7V-24" value="不一致" style="text;html=1;align=center;verticalAlign=middle;whiteSpace=wrap;rounded=0;" parent="1" vertex="1">
          <mxGeometry x="910" y="505" width="60" height="30" as="geometry" />
        </mxCell>
        <mxCell id="iYMbOG68nSV6l12BrZ7V-29" style="edgeStyle=orthogonalEdgeStyle;rounded=0;orthogonalLoop=1;jettySize=auto;html=1;exitX=0;exitY=0.5;exitDx=0;exitDy=0;entryX=1;entryY=0.4;entryDx=0;entryDy=0;entryPerimeter=0;" parent="1" source="iYMbOG68nSV6l12BrZ7V-27" target="pPcvffvmUVzLGgQBAyNQ-19" edge="1">
          <mxGeometry relative="1" as="geometry">
            <mxPoint x="970" y="1425" as="targetPoint" />
          </mxGeometry>
        </mxCell>
        <mxCell id="iYMbOG68nSV6l12BrZ7V-31" value="" style="edgeStyle=orthogonalEdgeStyle;rounded=0;orthogonalLoop=1;jettySize=auto;html=1;" parent="1" source="iYMbOG68nSV6l12BrZ7V-27" target="iYMbOG68nSV6l12BrZ7V-30" edge="1">
          <mxGeometry relative="1" as="geometry" />
        </mxCell>
        <mxCell id="iYMbOG68nSV6l12BrZ7V-27" value="是否强制更新" style="rhombus;whiteSpace=wrap;html=1;" parent="1" vertex="1">
          <mxGeometry x="1050" y="1383" width="80" height="80" as="geometry" />
        </mxCell>
        <mxCell id="iYMbOG68nSV6l12BrZ7V-30" value="核对数据(F3-FH)" style="rhombus;whiteSpace=wrap;html=1;" parent="1" vertex="1">
          <mxGeometry x="1050" y="1620" width="80" height="80" as="geometry" />
        </mxCell>
        <mxCell id="iYMbOG68nSV6l12BrZ7V-32" value="否" style="text;html=1;align=center;verticalAlign=middle;whiteSpace=wrap;rounded=0;" parent="1" vertex="1">
          <mxGeometry x="1100" y="1513" width="60" height="30" as="geometry" />
        </mxCell>
        <mxCell id="iYMbOG68nSV6l12BrZ7V-33" value="" style="endArrow=classic;html=1;rounded=0;entryX=1;entryY=0.5;entryDx=0;entryDy=0;" parent="1" source="iYMbOG68nSV6l12BrZ7V-34" target="QRlhJD_Ntzw3cVginwKR-15" edge="1">
          <mxGeometry width="50" height="50" relative="1" as="geometry">
            <mxPoint x="1250" y="1820" as="sourcePoint" />
            <mxPoint x="1300" y="1770" as="targetPoint" />
          </mxGeometry>
        </mxCell>
        <mxCell id="iYMbOG68nSV6l12BrZ7V-35" value="" style="endArrow=classic;html=1;rounded=0;entryX=1;entryY=0.5;entryDx=0;entryDy=0;" parent="1" source="iYMbOG68nSV6l12BrZ7V-30" target="iYMbOG68nSV6l12BrZ7V-34" edge="1">
          <mxGeometry width="50" height="50" relative="1" as="geometry">
            <mxPoint x="1050" y="1660" as="sourcePoint" />
            <mxPoint x="740" y="1660" as="targetPoint" />
          </mxGeometry>
        </mxCell>
        <mxCell id="iYMbOG68nSV6l12BrZ7V-34" value="3、增量更新F3可用库存和可用库存（ModifyTime)字段" style="rounded=0;whiteSpace=wrap;html=1;" parent="1" vertex="1">
          <mxGeometry x="854" y="1630" width="120" height="60" as="geometry" />
        </mxCell>
        <mxCell id="iYMbOG68nSV6l12BrZ7V-37" style="edgeStyle=orthogonalEdgeStyle;rounded=0;orthogonalLoop=1;jettySize=auto;html=1;exitX=0;exitY=0.5;exitDx=0;exitDy=0;entryX=1;entryY=0;entryDx=0;entryDy=52.5;entryPerimeter=0;" parent="1" source="QRlhJD_Ntzw3cVginwKR-15" target="pPcvffvmUVzLGgQBAyNQ-2" edge="1">
          <mxGeometry relative="1" as="geometry" />
        </mxCell>
      </root>
    </mxGraphModel>
  </diagram>
</mxfile>
